<svg width="30" height="31" viewBox="0 0 30 31" fill="none" xmlns="http://www.w3.org/2000/svg">
<path d="M18.4 11.4875L13.0375 16.8625L10.975 14.8C10.8629 14.6691 10.725 14.5629 10.57 14.4878C10.4149 14.4128 10.246 14.3707 10.0738 14.364C9.90167 14.3574 9.73 14.3864 9.5696 14.4492C9.40919 14.512 9.26351 14.6074 9.14169 14.7292C9.01987 14.851 8.92455 14.9967 8.8617 15.1571C8.79886 15.3175 8.76985 15.4892 8.7765 15.6613C8.78315 15.8335 8.82531 16.0024 8.90034 16.1575C8.97537 16.3125 9.08165 16.4504 9.2125 16.5625L12.15 19.5125C12.2668 19.6284 12.4053 19.72 12.5576 19.7822C12.7099 19.8444 12.873 19.876 13.0375 19.875C13.3654 19.8736 13.6797 19.7434 13.9125 19.5125L20.1625 13.2625C20.2797 13.1463 20.3727 13.008 20.4361 12.8557C20.4996 12.7034 20.5322 12.54 20.5322 12.375C20.5322 12.21 20.4996 12.0466 20.4361 11.8943C20.3727 11.742 20.2797 11.6037 20.1625 11.4875C19.9283 11.2547 19.6115 11.124 19.2813 11.124C18.951 11.124 18.6342 11.2547 18.4 11.4875ZM15 3C12.5277 3 10.111 3.73311 8.05537 5.10663C5.99976 6.48015 4.3976 8.43238 3.45151 10.7165C2.50541 13.0005 2.25787 15.5139 2.74018 17.9386C3.2225 20.3634 4.41301 22.5907 6.16117 24.3388C7.90932 26.087 10.1366 27.2775 12.5614 27.7598C14.9861 28.2421 17.4995 27.9946 19.7835 27.0485C22.0676 26.1024 24.0199 24.5002 25.3934 22.4446C26.7669 20.389 27.5 17.9723 27.5 15.5C27.5 13.8585 27.1767 12.233 26.5485 10.7165C25.9203 9.19989 24.9996 7.8219 23.8388 6.66117C22.6781 5.50043 21.3001 4.57969 19.7835 3.95151C18.267 3.32332 16.6415 3 15 3ZM15 25.5C13.0222 25.5 11.0888 24.9135 9.4443 23.8147C7.79981 22.7159 6.51808 21.1541 5.76121 19.3268C5.00433 17.4996 4.8063 15.4889 5.19215 13.5491C5.578 11.6093 6.53041 9.82746 7.92893 8.42893C9.32746 7.03041 11.1093 6.078 13.0491 5.69215C14.9889 5.3063 16.9996 5.50433 18.8268 6.2612C20.6541 7.01808 22.2159 8.29981 23.3147 9.9443C24.4135 11.5888 25 13.5222 25 15.5C25 18.1522 23.9464 20.6957 22.0711 22.5711C20.1957 24.4464 17.6522 25.5 15 25.5Z" fill="black"/>
</svg>
