<svg width="24" height="24" viewBox="0 0 24 24" fill="none" xmlns="http://www.w3.org/2000/svg">
<path d="M19.4102 13C19.1902 13 18.9602 12.93 18.7402 12.88C18.295 12.7805 17.8573 12.6501 17.4302 12.49C16.9663 12.3212 16.4563 12.33 15.9985 12.5146C15.5406 12.6992 15.1673 13.0466 14.9502 13.49L14.7302 13.95C13.759 13.3992 12.8618 12.7271 12.0602 11.95C11.283 11.1484 10.611 10.2512 10.0602 9.28L10.5202 9.07C10.9635 8.85292 11.311 8.47953 11.4956 8.02169C11.6802 7.56385 11.6889 7.05391 11.5202 6.59C11.3614 6.15903 11.2311 5.71808 11.1302 5.27C11.0802 5.05 11.0402 4.82 11.0102 4.6C10.8887 3.89562 10.5198 3.25774 9.96979 2.80124C9.41979 2.34474 8.72487 2.09961 8.01017 2.11H5.00017C4.57742 2.10945 4.15932 2.19825 3.77329 2.37058C3.38726 2.54292 3.04201 2.7949 2.76017 3.11C2.47249 3.43365 2.25829 3.81575 2.13228 4.23004C2.00626 4.64432 1.97143 5.08098 2.03017 5.51C2.57376 9.67214 4.47538 13.5387 7.44017 16.51C10.4115 19.4748 14.278 21.3764 18.4402 21.92C18.57 21.9299 18.7004 21.9299 18.8302 21.92C19.5676 21.9211 20.2796 21.6505 20.8302 21.16C21.1453 20.8782 21.3973 20.5329 21.5696 20.1469C21.7419 19.7609 21.8307 19.3428 21.8302 18.92V15.92C21.8248 15.229 21.581 14.5611 21.1401 14.0291C20.6992 13.4971 20.0881 13.1336 19.4102 13ZM19.9002 19C19.8998 19.1395 19.8703 19.2775 19.8135 19.4049C19.7566 19.5324 19.6738 19.6465 19.5702 19.74C19.4606 19.8399 19.3301 19.9141 19.1883 19.9573C19.0465 20.0006 18.8968 20.0117 18.7502 19.99C15.0184 19.5026 11.5504 17.802 8.88017 15.15C6.20764 12.4775 4.4922 8.99737 4.00017 5.25C3.97845 5.10333 3.98961 4.95367 4.03285 4.81185C4.07608 4.67003 4.15032 4.5396 4.25017 4.43C4.34479 4.32515 4.46055 4.24154 4.58982 4.18466C4.71909 4.12778 4.85894 4.09892 5.00017 4.1H8.00017C8.23133 4.09435 8.45731 4.16898 8.63964 4.3112C8.82196 4.45341 8.94937 4.65442 9.00017 4.88C9.00017 5.15 9.09017 5.43 9.15017 5.7C9.26575 6.22386 9.41949 6.73857 9.61017 7.24L8.21017 7.9C7.96954 8.01046 7.78253 8.21185 7.69017 8.46C7.59015 8.70346 7.59015 8.97654 7.69017 9.22C9.12937 12.3028 11.6074 14.7808 14.6902 16.22C14.9336 16.32 15.2067 16.32 15.4502 16.22C15.6983 16.1276 15.8997 15.9406 16.0102 15.7L16.6402 14.3C17.1561 14.4881 17.6839 14.6418 18.2202 14.76C18.4802 14.82 18.7602 14.87 19.0302 14.91C19.2558 14.9608 19.4568 15.0882 19.599 15.2705C19.7412 15.4529 19.8158 15.6788 19.8102 15.91L19.9002 19ZM14.0002 2C13.7702 2 13.5302 2 13.3002 2C13.035 2.02254 12.7896 2.14952 12.618 2.353C12.4464 2.55647 12.3626 2.81978 12.3852 3.085C12.4077 3.35022 12.5347 3.59562 12.7382 3.76721C12.9416 3.93881 13.205 4.02254 13.4702 4H14.0002C15.5915 4 17.1176 4.63214 18.2428 5.75736C19.368 6.88258 20.0002 8.4087 20.0002 10C20.0002 10.18 20.0002 10.35 20.0002 10.53C19.978 10.7938 20.0613 11.0556 20.2319 11.2581C20.4025 11.4606 20.6464 11.5871 20.9102 11.61H20.9902C21.2405 11.611 21.4821 11.5181 21.6673 11.3496C21.8524 11.1811 21.9676 10.9493 21.9902 10.7C21.9902 10.47 21.9902 10.23 21.9902 10C21.9902 7.88 21.1487 5.84668 19.6506 4.34668C18.1524 2.84667 16.1202 2.00265 14.0002 2ZM16.0002 10C16.0002 10.2652 16.1055 10.5196 16.2931 10.7071C16.4806 10.8946 16.735 11 17.0002 11C17.2654 11 17.5197 10.8946 17.7073 10.7071C17.8948 10.5196 18.0002 10.2652 18.0002 10C18.0002 8.93913 17.5787 7.92172 16.8286 7.17157C16.0785 6.42143 15.061 6 14.0002 6C13.735 6 13.4806 6.10536 13.2931 6.29289C13.1055 6.48043 13.0002 6.73478 13.0002 7C13.0002 7.26522 13.1055 7.51957 13.2931 7.70711C13.4806 7.89464 13.735 8 14.0002 8C14.5306 8 15.0393 8.21071 15.4144 8.58579C15.7895 8.96086 16.0002 9.46957 16.0002 10Z" fill="#ADB5BD"/>
</svg>
