<svg width="62" height="66" viewBox="0 0 62 66" fill="none" xmlns="http://www.w3.org/2000/svg">
<rect width="62" height="66" rx="10" fill="#00AFEF"/>
<path d="M41.5 18H20.5C19.3065 18 18.1619 18.4741 17.318 19.318C16.4741 20.1619 16 21.3065 16 22.5V43.5C16 44.6935 16.4741 45.8381 17.318 46.682C18.1619 47.5259 19.3065 48 20.5 48H41.5C42.6935 48 43.8381 47.5259 44.682 46.682C45.5259 45.8381 46 44.6935 46 43.5V22.5C46 21.3065 45.5259 20.1619 44.682 19.318C43.8381 18.4741 42.6935 18 41.5 18ZM28 21H34V25.695L31.825 24.195C31.5801 24.0337 31.2933 23.9477 31 23.9477C30.7067 23.9477 30.4199 24.0337 30.175 24.195L28 25.695V21ZM43 43.5C43 43.8978 42.842 44.2794 42.5607 44.5607C42.2794 44.842 41.8978 45 41.5 45H20.5C20.1022 45 19.7206 44.842 19.4393 44.5607C19.158 44.2794 19 43.8978 19 43.5V22.5C19 22.1022 19.158 21.7206 19.4393 21.4393C19.7206 21.158 20.1022 21 20.5 21H25V28.5C25.0007 28.7714 25.075 29.0374 25.215 29.2699C25.355 29.5023 25.5555 29.6925 25.795 29.82C26.0296 29.9404 26.2917 29.9969 26.5551 29.9838C26.8184 29.9706 27.0736 29.8882 27.295 29.745L31 27.3L34.675 29.745C34.9006 29.8936 35.1621 29.9785 35.432 29.9907C35.7018 30.003 35.97 29.9421 36.2081 29.8146C36.4462 29.6871 36.6455 29.4976 36.7849 29.2662C36.9243 29.0349 36.9986 28.7701 37 28.5V21H41.5C41.8978 21 42.2794 21.158 42.5607 21.4393C42.842 21.7206 43 22.1022 43 22.5V43.5Z" fill="white"/>
</svg>
