<svg width="27" height="26" viewBox="0 0 27 26" fill="none" xmlns="http://www.w3.org/2000/svg">
<path d="M3.15 6.21429H23.85C24.155 6.21429 24.4475 6.0713 24.6632 5.81679C24.8788 5.56227 25 5.21708 25 4.85714C25 4.49721 24.8788 4.15201 24.6632 3.8975C24.4475 3.64298 24.155 3.5 23.85 3.5H3.15C2.845 3.5 2.55249 3.64298 2.33683 3.8975C2.12116 4.15201 2 4.49721 2 4.85714C2 5.21708 2.12116 5.56227 2.33683 5.81679C2.55249 6.0713 2.845 6.21429 3.15 6.21429ZM23.85 19.7857H3.15C2.845 19.7857 2.55249 19.9287 2.33683 20.1832C2.12116 20.4377 2 20.7829 2 21.1429C2 21.5028 2.12116 21.848 2.33683 22.1025C2.55249 22.357 2.845 22.5 3.15 22.5H23.85C24.155 22.5 24.4475 22.357 24.6632 22.1025C24.8788 21.848 25 21.5028 25 21.1429C25 20.7829 24.8788 20.4377 24.6632 20.1832C24.4475 19.9287 24.155 19.7857 23.85 19.7857ZM23.85 14.3571H3.15C2.845 14.3571 2.55249 14.5001 2.33683 14.7546C2.12116 15.0092 2 15.3543 2 15.7143C2 16.0742 2.12116 16.4194 2.33683 16.6739C2.55249 16.9284 2.845 17.0714 3.15 17.0714H23.85C24.155 17.0714 24.4475 16.9284 24.6632 16.6739C24.8788 16.4194 25 16.0742 25 15.7143C25 15.3543 24.8788 15.0092 24.6632 14.7546C24.4475 14.5001 24.155 14.3571 23.85 14.3571ZM23.85 8.92857H3.15C2.845 8.92857 2.55249 9.07156 2.33683 9.32607C2.12116 9.58058 2 9.92578 2 10.2857C2 10.6457 2.12116 10.9908 2.33683 11.2454C2.55249 11.4999 2.845 11.6429 3.15 11.6429H23.85C24.155 11.6429 24.4475 11.4999 24.6632 11.2454C24.8788 10.9908 25 10.6457 25 10.2857C25 9.92578 24.8788 9.58058 24.6632 9.32607C24.4475 9.07156 24.155 8.92857 23.85 8.92857Z" fill="black"/>
</svg>
