<svg width="25" height="24" viewBox="0 0 25 24" fill="none" xmlns="http://www.w3.org/2000/svg">
<path fill-rule="evenodd" clip-rule="evenodd" d="M19.1559 5.11612C19.6441 5.60427 19.6441 6.39573 19.1559 6.88388L7.15592 18.8839C6.66776 19.372 5.87631 19.372 5.38815 18.8839C4.89999 18.3957 4.89999 17.6043 5.38815 17.1161L17.3882 5.11612C17.8763 4.62796 18.6678 4.62796 19.1559 5.11612Z" fill="#323131"/>
<path fill-rule="evenodd" clip-rule="evenodd" d="M5.38815 5.11612C5.87631 4.62796 6.66776 4.62796 7.15592 5.11612L19.1559 17.1161C19.6441 17.6043 19.6441 18.3957 19.1559 18.8839C18.6678 19.372 17.8763 19.372 17.3882 18.8839L5.38815 6.88388C4.89999 6.39573 4.89999 5.60427 5.38815 5.11612Z" fill="#323131"/>
</svg>
